<?xml version="1.0" encoding="utf-8"?>
<!-- Generator: Adobe Illustrator 21.1.0, SVG Export Plug-In . SVG Version: 6.00 Build 0)  -->
<svg version="1.1" id="Слой_1" xmlns="http://www.w3.org/2000/svg" xmlns:xlink="http://www.w3.org/1999/xlink" x="0px" y="0px"
	 viewBox="0 0 300 300" style="enable-background:new 0 0 300 300;" xml:space="preserve">
<style type="text/css">
	.st0{fill:#C1C1C1;}
	.st1{fill:#E5A820;}
</style>
<g>
	<path class="st0" d="M27.3,283.1L27.3,283.1c-5.7-3.9-7.2-11.7-3.4-17.4L142.2,91c3.9-5.7,11.7-7.2,17.4-3.4l0,0
		c5.7,3.9,7.2,11.7,3.4,17.4L44.7,279.7C40.8,285.5,33.1,287,27.3,283.1z"/>
</g>
<g>
	<polygon class="st1" points="99,81.3 75.4,81.3 92.1,64.6 86.9,59.4 70.2,76.1 70.2,52.5 62.8,52.5 62.8,76.1 46.1,59.4 40.9,64.6 
		57.6,81.3 34,81.3 34,88.7 57.6,88.7 40.9,105.4 46.1,110.6 62.8,93.9 62.8,117.5 70.2,117.5 70.2,93.9 86.9,110.6 92.1,105.4 
		75.4,88.7 99,88.7 	"/>
</g>
<g>
	<polygon class="st1" points="160.4,26.3 145.1,33.8 150.7,17.7 145.6,16 140.1,32 132.6,16.7 127.8,19.1 135.3,34.4 119.2,28.8 
		117.5,33.9 133.5,39.4 118.2,46.9 120.6,51.7 135.9,44.2 130.3,60.3 135.4,62 140.9,46 148.4,61.3 153.2,58.9 145.7,43.6 
		161.8,49.2 163.5,44.1 147.5,38.6 162.8,31.1 	"/>
</g>
<g>
	<polygon class="st1" points="249.7,28.6 229.6,31.7 241.6,15.3 236.5,11.5 224.5,27.9 221.3,7.8 215.1,8.8 218.2,28.9 201.8,16.9 
		198,22 214.4,34 194.3,37.2 195.3,43.4 215.4,40.3 203.4,56.7 208.5,60.5 220.5,44.1 223.7,64.2 229.9,63.2 226.8,43.1 243.2,55.1 
		247,50 230.6,38 250.7,34.8 	"/>
</g>
<g>
	<polygon class="st1" points="246.4,119.2 221.9,111.9 244.4,99.7 240.6,92.7 218.1,104.9 225.3,80.3 217.7,78.1 210.4,102.6 
		198.2,80.1 191.2,83.9 203.4,106.4 178.8,99.2 176.6,106.8 201.1,114.1 178.6,126.3 182.4,133.3 204.9,121.1 197.7,145.7 
		205.3,147.9 212.6,123.4 224.8,145.9 231.8,142.1 219.6,119.6 244.2,126.8 	"/>
</g>
</svg>
