<?xml version="1.0" encoding="utf-8"?>
<!-- Generator: Adobe Illustrator 21.1.0, SVG Export Plug-In . SVG Version: 6.00 Build 0)  -->
<svg version="1.1" id="Слой_1" xmlns="http://www.w3.org/2000/svg" xmlns:xlink="http://www.w3.org/1999/xlink" x="0px" y="0px"
	 viewBox="0 0 300 300" style="enable-background:new 0 0 300 300;" xml:space="preserve">
<style type="text/css">
	.st0{fill:#939393;}
	.st1{display:none;}
	.st2{display:inline;fill:#70D852;}
	.st3{display:inline;fill:#F4AB53;}
</style>
<path class="st0" d="M150,2C68.3,2,2,68.3,2,150s66.3,148,148,148s148-66.3,148-148S231.7,2,150,2z M150,280
	c-71.8,0-130-58.2-130-130S78.2,20,150,20s130,58.2,130,130S221.8,280,150,280z"/>
<g class="st1">
	<polygon class="st2" points="254.6,104.6 233.4,83.4 127.5,189.3 59.1,120.9 37.9,142.1 127.4,231.6 127.5,231.5 127.6,231.6 	"/>
</g>
<g class="st1">
	<rect x="135.2" y="47" class="st3" width="30" height="152.3"/>
	<rect x="135.1" y="223.7" class="st3" width="30" height="26.3"/>
</g>
<rect x="42" y="130" class="st0" width="216" height="40"/>
</svg>
