<?xml version="1.0" encoding="utf-8"?>
<!-- Generator: Adobe Illustrator 21.1.0, SVG Export Plug-In . SVG Version: 6.00 Build 0)  -->
<svg version="1.1" id="Слой_1" xmlns="http://www.w3.org/2000/svg" xmlns:xlink="http://www.w3.org/1999/xlink" x="0px" y="0px"
	 viewBox="0 0 300 300" style="enable-background:new 0 0 300 300;" xml:space="preserve">
<style type="text/css">
	.st0{fill:#C1C1C1;}
</style>
<g>
	<path class="st0" d="M56.9,211.9l-1.4-0.4l-11.1,55.8l54.9-14.9C92.9,231.6,77.9,217.3,56.9,211.9z"/>
	<path class="st0" d="M242.6,11.1L73.2,192.6l1.4,0.4c21,5.4,36,19.8,42.4,40.6L286.4,52C279.3,31.7,263.3,16.7,242.6,11.1z
		 M120.6,188.6c-4.4,4.8-11.5,5.4-15.7,1.5c-4.2-4-4.1-11,0.4-15.8L232.6,37.9c4.4-4.8,11.5-5.4,15.7-1.5c4.2,4,4.1,11-0.4,15.8
		L120.6,188.6z"/>
</g>
</svg>
