<?xml version="1.0" encoding="utf-8"?>
<!-- Generator: Adobe Illustrator 21.1.0, SVG Export Plug-In . SVG Version: 6.00 Build 0)  -->
<svg version="1.1" id="Слой_1" xmlns="http://www.w3.org/2000/svg" xmlns:xlink="http://www.w3.org/1999/xlink" x="0px" y="0px"
	 viewBox="0 0 300 300" style="enable-background:new 0 0 300 300;" xml:space="preserve">
<style type="text/css">
	.st0{fill:#C1C1C1;}
	.st1{fill:#FFFFFF;}
</style>
<g>
	<path class="st0" d="M292.7,147.9C291.6,69.4,227.3,5.5,148.8,4.8c-40.6-0.3-77.3,16-103.9,42.5L32.7,35.1c-3.3-3.3-9-1-9,3.7v52.7
		c0,2.9,2.4,5.3,5.3,5.3h52.7c4.7,0,7-5.7,3.7-9L69.4,71.9c20.5-20.5,48.9-32.9,80.2-32.4c57.6,1.1,105.3,47,108.3,104.6
		c3.3,63.7-47.4,116.5-110.4,116.5c-39.8,0-74.6-21-94.1-52.6c-2.4-3.9-7.4-5.3-11.5-3.2l-15.3,8c-4.4,2.3-6,7.9-3.5,12.2
		c25.4,42.1,71.6,70.2,124.3,70.2C228.4,295.2,293.8,229,292.7,147.9z"/>
</g>
<g>
	<rect x="64" y="136" class="st1" width="0" height="6"/>
	<polygon points="64,136 64,142 64,136 	"/>
</g>
<g>
	<path class="st0" d="M87.7,105.9L21.4,102c-4.9-0.3-8.6-4.5-8.3-9.3L17,26.4c0.5-7.8,10.2-11.2,15.4-5.3l62.4,70.1
		C100,97.1,95.5,106.3,87.7,105.9z"/>
</g>
</svg>
